<svg width="256" height="256" viewBox="0 0 256 256" fill="none" xmlns="http://www.w3.org/2000/svg">
<circle cx="128" cy="128" r="120" fill="black"/>
<g filter="url(#filter0_d_116_23)">
<path d="M191.256 150.456C192.365 150.456 193.218 150.968 193.816 151.992C194.498 153.016 194.84 154.424 194.84 156.216C194.84 159.544 194.029 162.189 192.408 164.152C188.312 169.101 184.173 172.941 179.992 175.672C175.81 178.317 170.861 179.64 165.144 179.64C159.597 179.64 154.861 178.147 150.936 175.16C147.096 172.173 143.426 167.053 139.928 159.8C137.112 153.997 134.893 149.731 133.271 147C131.65 144.184 130.029 142.179 128.408 140.984C126.872 139.789 124.952 139.064 122.648 138.808C122.306 140.6 121.325 146.232 119.704 155.704C119.021 159.971 118.594 162.573 118.424 163.512C117.57 168.717 115.864 172.728 113.304 175.544C110.744 178.275 106.861 179.64 101.656 179.64C95.9382 179.64 90.8608 177.976 86.4235 174.648C82.0715 171.235 78.7008 166.541 76.3115 160.568C73.9222 154.509 72.7275 147.64 72.7275 139.96C72.7275 125.624 75.2022 113.251 80.1515 102.84C85.1862 92.4293 92.1835 84.4933 101.144 79.032C110.189 73.4853 120.6 70.712 132.376 70.712C140.568 70.712 147.437 71.9493 152.984 74.424C158.53 76.8987 162.626 80.312 165.272 84.664C168.002 89.016 169.368 93.9227 169.368 99.384C169.368 104.163 168.216 108.856 165.912 113.464C163.693 117.987 160.322 121.997 155.8 125.496C151.277 128.995 145.773 131.597 139.288 133.304C143.384 134.413 146.541 136.205 148.76 138.68C150.978 141.155 153.197 144.781 155.416 149.56C157.805 154.68 160.152 158.435 162.456 160.824C164.845 163.213 167.576 164.408 170.648 164.408C173.378 164.408 175.981 163.512 178.456 161.72C180.93 159.843 184.045 156.685 187.8 152.248C188.824 151.053 189.976 150.456 191.256 150.456ZM104.984 138.68C102.082 138.68 100.077 137.997 98.9675 136.632C97.9435 135.267 97.4315 133.731 97.4315 132.024C97.4315 129.976 98.0715 128.355 99.3515 127.16C100.717 125.965 102.253 125.368 103.96 125.368H107.16C108.525 117.005 109.805 109.795 111 103.736C112.109 98.1893 115.693 95.416 121.752 95.416C126.616 95.416 129.048 97.592 129.048 101.944C129.048 102.883 129.005 103.608 128.92 104.12L125.08 125.368C129.688 125.112 133.869 124.003 137.624 122.04C141.464 120.077 144.493 117.347 146.712 113.848C149.016 110.349 150.168 106.381 150.168 101.944C150.168 96.568 148.333 92.344 144.664 89.272C140.994 86.2 135.618 84.664 128.536 84.664C120.173 84.664 112.834 86.7547 106.52 90.936C100.29 95.032 95.4262 101.176 91.9275 109.368C88.4288 117.475 86.6795 127.373 86.6795 139.064C86.6795 144.525 87.2342 149.219 88.3435 153.144C89.4528 157.069 90.8182 160.013 92.4395 161.976C94.0608 163.939 95.5968 164.92 97.0475 164.92C98.1568 164.92 99.0528 164.365 99.7355 163.256C100.504 162.147 101.101 160.355 101.528 157.88L104.984 138.68Z" fill="white"/>
</g>
<defs>
<filter id="filter0_d_116_23" x="68.7275" y="70.712" width="130.112" height="116.928" filterUnits="userSpaceOnUse" color-interpolation-filters="sRGB">
<feFlood flood-opacity="0" result="BackgroundImageFix"/>
<feColorMatrix in="SourceAlpha" type="matrix" values="0 0 0 0 0 0 0 0 0 0 0 0 0 0 0 0 0 0 127 0" result="hardAlpha"/>
<feOffset dy="4"/>
<feGaussianBlur stdDeviation="2"/>
<feComposite in2="hardAlpha" operator="out"/>
<feColorMatrix type="matrix" values="0 0 0 0 0 0 0 0 0 0 0 0 0 0 0 0 0 0 0.25 0"/>
<feBlend mode="normal" in2="BackgroundImageFix" result="effect1_dropShadow_116_23"/>
<feBlend mode="normal" in="SourceGraphic" in2="effect1_dropShadow_116_23" result="shape"/>
</filter>
</defs>
</svg>
